<!-- Generator: Adobe Illustrator 18.0.0, SVG Export Plug-In  -->
<svg version="1.1"
	 xmlns="http://www.w3.org/2000/svg" xmlns:xlink="http://www.w3.org/1999/xlink" xmlns:a="http://ns.adobe.com/AdobeSVGViewerExtensions/3.0/"
	 x="0px" y="0px" width="136.2px" height="149.5px" viewBox="0 0 136.2 149.5" enable-background="new 0 0 136.2 149.5"
	 xml:space="preserve">
<defs>
</defs>
<g>
	<polygon fill="#00D369" points="25,49.9 68.1,25 111.2,49.9 111.2,99.6 68.1,124.5 25,99.6 	"/>
	<path fill="#00D369" d="M68.1,149.5c-4.3,0-8.6-1.1-12.5-3.3l-43.1-24.9C4.8,116.8,0,108.6,0,99.6V49.9C0,41,4.8,32.7,12.5,28.2
		L55.6,3.3c7.7-4.5,17.3-4.5,25,0l43.1,24.9c7.7,4.5,12.5,12.7,12.5,21.7v49.8c0,8.9-4.8,17.2-12.5,21.7l-43.1,24.9
		C76.7,148.4,72.4,149.5,68.1,149.5z M50,85.2l18.1,10.4l18.1-10.4V64.3L68.1,53.9L50,64.3V85.2z"/>
</g>
<g>
	<path fill="#FFFFFF" d="M35.4,81.8c-0.1,0.7-0.5,1.2-1.1,1.2c-0.6,0-1.1-0.5-1.1-1.2V67.4c0-0.6,0.4-1.2,1.1-1.2
		c0.6,0,1.1,0.5,1.1,1.2v4.9c0.6-0.9,2-1.5,3.4-1.5c3.6,0,5.6,2.8,5.6,6.2c0,3.9-2.1,6.2-5.6,6.2C37.5,83.3,36,82.8,35.4,81.8z
		 M38.8,72.7c-2.2,0-3.4,1.7-3.4,4.3c0,2.6,1.2,4.3,3.4,4.3s3.4-1.7,3.4-4.3C42.2,74.4,41,72.7,38.8,72.7z"/>
	<path fill="#FFFFFF" d="M52.8,81.1v-13h-2.7c-0.6,0-1.2-0.3-1.2-1s0.5-1,1.2-1h3.8c0.6,0,1.1,0.4,1.1,1v13.9h3.5
		c0.6,0,1.2,0.3,1.2,1s-0.5,1-1.2,1h-9.1c-0.6,0-1.2-0.3-1.2-1s0.5-1,1.2-1H52.8z"/>
	<path fill="#FFFFFF" d="M62.2,77c0-3.2,2-6.2,5.6-6.2c1.2,0,2.6,0.5,3.4,1.5c0-0.8,0.5-1.2,1.1-1.2c0.7,0,1.2,0.4,1.2,1.2v9.6
		c0,0.8-0.5,1.2-1.2,1.2c-0.6,0-1-0.5-1.1-1.2c-0.7,1-2.1,1.5-3.4,1.5C64.1,83.3,62.2,80.3,62.2,77z M67.8,81.4
		c2.1,0,3.5-1.8,3.5-4.3s-1.4-4.3-3.5-4.3s-3.5,1.8-3.5,4.3S65.7,81.4,67.8,81.4z"/>
	<path fill="#FFFFFF" d="M78,72.2c0-0.6,0.4-1.2,1.1-1.2c0.6,0,1.1,0.5,1.1,1.2v0.5c0.4-1,1.9-1.9,3.4-1.9c2.8,0,4.5,1.2,4.5,4.6
		v6.4c0,0.6-0.4,1.2-1.1,1.2c-0.6,0-1.1-0.5-1.1-1.2v-6c0-2.2-0.6-3.2-2.4-3.2c-2.1,0-3.4,1.9-3.4,4.6v4.5c0,0.6-0.4,1.2-1.1,1.2
		c-0.6,0-1.1-0.5-1.1-1.2V72.2z"/>
	<path fill="#FFFFFF" d="M97.3,77.2L95.6,79v2.8c0,0.6-0.4,1.2-1.1,1.2c-0.6,0-1.1-0.5-1.1-1.2V67.4c0-0.6,0.4-1.2,1.1-1.2
		c0.6,0,1.1,0.5,1.1,1.2v8.5l4.3-4.5c0.2-0.3,0.6-0.4,0.8-0.4c0.7,0,1.1,0.5,1.1,1.1c0,0.3-0.1,0.5-0.3,0.7l-2.7,2.8l3.9,5.8
		c0.1,0.2,0.2,0.4,0.2,0.6c0,0.6-0.5,1-1.1,1c-0.5,0-0.8-0.2-1-0.6L97.3,77.2z"/>
</g>
</svg>
